 <!DOCTYPE svg PUBLIC "-//W3C//DTD SVG 1.1//EN" "http://www.w3.org/Graphics/SVG/1.1/DTD/svg11.dtd">
<svg id="a116cbe7-12f5-441c-bee1-e29b166b7464" data-name="Layer 1" xmlns="http://www.w3.org/2000/svg" width="865.76" height="682.89" viewBox="0 0 865.76 682.89">
<defs>
<style xmlns="http://www.w3.org/1999/xhtml">*, ::after, ::before { box-sizing: border-box; }
img, svg { vertical-align: middle; }
</style>
<style xmlns="http://www.w3.org/1999/xhtml">*, body, html { -webkit-font-smoothing: antialiased; }
img, svg { max-width: 100%; }
</style>
</defs>
<path d="M296,408.36a14.62,14.62,0,0,0-2.81,0c-5,1-6.51-1.95-6.59-6-.07-3.45-2-4.63-4.79-6-3.36-1.63-5.1.62-7,2.15-3.08,2.51-5.5,2.41-7.88-.75a24.29,24.29,0,0,0-2.31-2.34c-5.91-5.91-5.91-5.91-1.69-13.2,1.68-2.91-.47-8-3.71-8.81-7.92-1.92-7.92-1.92-7.92-10.22a17.68,17.68,0,0,0,0-2.82c-.73-4.5,1.1-6.43,5.68-7,6.66-.75,8.71-5.76,4.52-11.17-2.83-3.65-2.8-6.29.9-9a21.26,21.26,0,0,0,2.34-2.31c6.17-6.14,5.17-6.34,12.21-1.5,3.48,2.4,8.66,0,9.45-4.2,1.35-7.29,1.35-7.29,8.94-7.29a22.33,22.33,0,0,0,3.75,0c4.95-.87,6.6,1.71,7.2,6.13.85,6.25,5.8,8.35,10.83,4.42,3.79-3,6.61-2.92,9.42,1a22.17,22.17,0,0,0,2.31,2.34c6.06,6.12,6.15,4.92,1.4,11.77a6.37,6.37,0,0,0,3.92,9.66c7.32,1.76,7.32,1.76,7.3,9.29a33.19,33.19,0,0,0,0,4.23c.48,3.86-1,5.51-5,6.14-7.78,1.23-9.48,5.52-4.84,11.86,2.31,3.15,2.51,5.48-.72,7.9a30.23,30.23,0,0,0-3,3c-5.49,5.49-5.49,5.49-12,1.28-3.15-2-8.44-.13-9.38,3.36C304.35,408.36,304.35,408.36,296,408.36Zm.61-67a21.89,21.89,0,0,0-22.29,21.76,22.06,22.06,0,0,0,44.11.45A21.86,21.86,0,0,0,296.65,341.39Z" fill="#2f2e41" data-secondary="true"/>
<path d="M296,408.36a14.62,14.62,0,0,0-2.81,0c-5,1-6.51-1.95-6.59-6-.07-3.45-2-4.63-4.79-6-3.36-1.63-5.1.62-7,2.15-3.08,2.51-5.5,2.41-7.88-.75a24.29,24.29,0,0,0-2.31-2.34c-5.91-5.91-5.91-5.91-1.69-13.2,1.68-2.91-.47-8-3.71-8.81-7.92-1.92-7.92-1.92-7.92-10.22a17.68,17.68,0,0,0,0-2.82c-.73-4.5,1.1-6.43,5.68-7,6.66-.75,8.71-5.76,4.52-11.17-2.83-3.65-2.8-6.29.9-9a21.26,21.26,0,0,0,2.34-2.31c6.17-6.14,5.17-6.34,12.21-1.5,3.48,2.4,8.66,0,9.45-4.2,1.35-7.29,1.35-7.29,8.94-7.29a22.33,22.33,0,0,0,3.75,0c4.95-.87,6.6,1.71,7.2,6.13.85,6.25,5.8,8.35,10.83,4.42,3.79-3,6.61-2.92,9.42,1a22.17,22.17,0,0,0,2.31,2.34c6.06,6.12,6.15,4.92,1.4,11.77a6.37,6.37,0,0,0,3.92,9.66c7.32,1.76,7.32,1.76,7.3,9.29a33.19,33.19,0,0,0,0,4.23c.48,3.86-1,5.51-5,6.14-7.78,1.23-9.48,5.52-4.84,11.86,2.31,3.15,2.51,5.48-.72,7.9a30.23,30.23,0,0,0-3,3c-5.49,5.49-5.49,5.49-12,1.28-3.15-2-8.44-.13-9.38,3.36C304.35,408.36,304.35,408.36,296,408.36Zm.61-67a21.89,21.89,0,0,0-22.29,21.76,22.06,22.06,0,0,0,44.11.45A21.86,21.86,0,0,0,296.65,341.39Z" fill="#fff" opacity="0.2"/>
<path d="M170.24,121.28H418.46a28.19,28.19,0,0,1,28.19,28.19V329.91a0,0,0,0,1,0,0H142.05a0,0,0,0,1,0,0V149.47A28.19,28.19,0,0,1,170.24,121.28Z" fill="#ccc"/>
<path d="M142.05,323h304.6a0,0,0,0,1,0,0v12.17A10.69,10.69,0,0,1,436,345.86H152.74a10.69,10.69,0,0,1-10.69-10.69V323A0,0,0,0,1,142.05,323Z" fill="#ccc"/>
<path d="M142.05,323h304.6a0,0,0,0,1,0,0v12.17A10.69,10.69,0,0,1,436,345.86H152.74a10.69,10.69,0,0,1-10.69-10.69V323A0,0,0,0,1,142.05,323Z" opacity="0.2"/>
<path d="M234.72,392.1c1.67.94,3.14,1.89,4.72,2.6,2.5,1.14,3.48,2.47,2.29,5.43-1.29,3.16.5,5.41,4,5,4.29-.48,4,2.59,4.85,5.09s1.26,4.28-1.81,5.68c-3.56,1.62-3.87,4.1-.95,6.56,2.14,1.8,2.38,3.36.7,5.48s-1.8,5.86-6.22,4.25c-3.59-1.31-5.58.21-5.18,4.11.47,4.51-3,3.85-5.33,4.72s-4.25,1.19-5.55-2c-1.39-3.36-4.36-3.71-6.63-.76-2.56,3.34-4.47,1-6.63-.13s-4.34-2.12-3-5.54-.33-5.69-4.07-5.29c-4.43.48-3.92-2.88-4.8-5.22s-1-4.23,2-5.53c3.34-1.46,3.68-4.35.71-6.63s-1.53-4-.19-5.89,1.55-5.23,5.58-3.77,5.42,0,5.81-4.56c.1-1.21,1.26-3.06,2.28-3.33,2.33-.61,5.89-1.54,7.16-.38C229.67,396.76,229.42,397,234.72,392.1Zm-21.23,24a12.43,12.43,0,1,0,12.38-12.32A12.74,12.74,0,0,0,213.49,416.13Z" fill="#2f2e41" data-secondary="true"/>
<polygon points="313.06 463.74 338.34 463.74 335.05 636.66 320.05 636.66 313.06 463.74" fill="#ccc"/>
<polygon points="313.06 463.74 338.34 463.74 335.05 636.66 320.05 636.66 313.06 463.74" opacity="0.2"/>
<polygon points="716.73 463.74 742 463.74 738.71 636.66 723.71 636.66 716.73 463.74" fill="#ccc"/>
<polygon points="716.73 463.74 742 463.74 738.71 636.66 723.71 636.66 716.73 463.74" opacity="0.2"/>
<path d="M526.45,603.34h76.74a56.53,56.53,0,0,0-42.7-16.4S542.1,587.44,526.45,603.34Z" fill="#ccc"/>
<path d="M526.45,603.34h76.74a56.53,56.53,0,0,0-42.7-16.4S542.1,587.44,526.45,603.34Z" opacity="0.2"/>
<path d="M631.28,320c30.81,2.2,29.49,39.07,29.49,39.07L635.58,490.33a16.3,16.3,0,0,1-16,13.24H569v79.22H558.66V503.57H511.13v-11H615.34a8.73,8.73,0,0,0,8.51-6.81l28.56-126.65S655.93,331.92,631.28,320Z" fill="#ccc"/>
<path d="M631.28,320c30.81,2.2,29.49,39.07,29.49,39.07L635.58,490.33a16.3,16.3,0,0,1-16,13.24H569v79.22H558.66V503.57H511.13v-11H615.34a8.73,8.73,0,0,0,8.51-6.81l28.56-126.65S655.93,331.92,631.28,320Z" opacity="0.2"/>
<path d="M517.44,612.9s11.74-27.2,33.73-25c0,0-.37-9.31,12.67-10.06,0,0,14.53-.37,15.28,9.69,0,0,23.11,1.24,30.56,23.35l-1.86,2.18-3.36-.93s-2.23-14.91-25.71-20.87c0,0-11.18-3.15-26.25-.37a40.19,40.19,0,0,0-29,21.75q-.33.66-.63,1.35Z" fill="#ccc"/>
<path d="M517.44,611.41a10.69,10.69,0,1,0,10.69,10.69A10.69,10.69,0,0,0,517.44,611.41Zm.58,16.46a5.45,5.45,0,1,1,5.45-5.45A5.45,5.45,0,0,1,518,627.87Z" fill="#ccc"/>
<path d="M622.07,323s18.47-5.63,26.37,10.27a43.38,43.38,0,0,1,3.85,35.51c-6.55,19.92-25,128.52-25,128.52l-55.46,2Z" fill="#ccc"/>
<path d="M631.68,303.49l5.39.74a8.44,8.44,0,0,0,9.11-5.61l9.68-28.2a7.39,7.39,0,0,0-6.13-9.74l-7.38-.86Z" fill="#ccc"/>
<path d="M631.68,303.49l5.39.74a8.44,8.44,0,0,0,9.11-5.61l9.68-28.2a7.39,7.39,0,0,0-6.13-9.74l-7.38-.86Z" opacity="0.2"/>
<polygon points="630.76 301.13 624.3 334.43 613.37 332.01 620.08 299.78 630.76 301.13" fill="#ccc"/>
<polygon points="420.57 602.12 417.1 619.51 434.49 626.97 449.39 616.03 449.39 598.39 420.57 602.12" fill="#f9b499"/>
<polygon points="482.19 602 481.68 615.07 492.25 624.73 504.55 624.73 512 612.68 509.77 598.39 482.19 602" fill="#f9b499"/>
<path d="M417.1,605.1l24.46-132.38a5.81,5.81,0,0,1,5.72-4.76h53.4L449.39,605.1Z" fill="#2f2e41" data-secondary="true"/>
<path d="M417.1,605.1l24.46-132.38a5.81,5.81,0,0,1,5.72-4.76h53.4L449.39,605.1Z" opacity="0.2"/>
<rect x="263.06" y="441.62" width="533.42" height="17.89" rx="8.94" fill="#3f3d56"/>
<rect x="263.06" y="441.62" width="533.42" height="17.89" rx="8.94" fill="#2f2e41" data-secondary="true"/>
<rect x="263.06" y="441.62" width="533.42" height="17.89" rx="8.94" opacity="0.2"/>
<rect x="292.74" y="459.51" width="474.05" height="8.45" rx="4.22" fill="#ccc"/>
<path d="M580.2,256.53l62.15,3.29a6.42,6.42,0,0,1,5.79,8.35L638.41,299a6.42,6.42,0,0,1-6.73,4.46l-55.2-5.22Z" fill="#ccc"/>
<polygon points="129.64 599.39 129.64 622.49 140.82 625.85 149.76 621.38 149.76 598.77 129.64 599.39" fill="#f9b499"/>
<polygon points="50.63 598.77 50.63 621 55.48 626.22 63.68 619.14 69.27 598.77 50.63 598.77" fill="#f9b499"/>
<path d="M46.53,602.37s39.88-272.8,58.14-291.8l5.77-4.23,56.48-1.17s14.15,60.93,8.56,123.16c0,0-14.16,153.79-18.63,173.17h-32l12.67-195.9v-7.83h-5.22S80.45,595.66,73.74,603.86Z" fill="#2f2e41" data-secondary="true"/>
<path d="M46.53,602.37s39.88-272.8,58.14-291.8l5.77-4.23,56.48-1.17s14.15,60.93,8.56,123.16c0,0-14.16,153.79-18.63,173.17h-32l12.67-195.9v-7.83h-5.22S80.45,595.66,73.74,603.86Z" opacity="0.2"/>
<polyline points="108.2 328.51 99.36 339.09 97.34 342.13 137.09 373.3 152.31 353.93" fill="#ccc"/>
<polyline points="108.2 328.51 99.36 339.09 97.34 342.13 137.09 373.3 152.31 353.93" fill="#fff" opacity="0.2"/>
<polyline points="104.93 326 96.1 336.53 136.35 368.08 148.85 352.66" fill="#3f3d56"/>
<path d="M247.42,270.06a52.27,52.27,0,1,1-41.07-96.13Z" fill="#2f2e41" data-secondary="true"/>
<path d="M247,173.93a52.5,52.5,0,0,0-38.82-.74l20.16,46.92Z" opacity="0.2"/>
<path d="M275.55,203.51a52.23,52.23,0,0,1,3.39,18.57c0,20.87-11.47,38.51-29.16,46.89l-19.94-46.31Z" opacity="0.5"/>
<path d="M283.54,198.87c-5.08-12.32-19-26.69-31.11-32.17l-22.59,54.39Z" opacity="0.3"/>
<circle cx="163.75" cy="138.78" r="5.09" opacity="0.2"/>
<circle cx="197.54" cy="138.78" r="5.09" opacity="0.2"/>
<rect x="313.06" y="262.9" width="13.98" height="24.96" fill="#2f2e41" data-secondary="true"/>
<rect x="335.05" y="237.97" width="13.98" height="49.89" fill="#2f2e41" data-secondary="true"/>
<rect x="335.05" y="237.97" width="13.98" height="49.89" fill="#fff" opacity="0.2"/>
<rect x="355.55" y="233.31" width="13.98" height="54.54" fill="#2f2e41" data-secondary="true"/>
<rect x="377.91" y="211.7" width="13.98" height="76.15" fill="#2f2e41" data-secondary="true"/>
<polygon points="310.02 251.5 309.4 250.9 332.63 227.16 356.68 227.16 377.55 195.81 378.27 196.29 357.15 228.03 333 228.03 310.02 251.5" fill="#2f2e41" data-secondary="true"/>
<circle cx="308.89" cy="251.68" r="1.91" fill="#2f2e41" data-secondary="true"/>
<polygon points="375.05 194.06 380.02 198.16 380.02 193.19 375.05 194.06" fill="#2f2e41" data-secondary="true"/>
<rect x="305.24" y="149.46" width="10.62" height="10.62" opacity="0.2"/>
<rect x="305.24" y="169.99" width="10.62" height="10.62" opacity="0.2"/>
<rect x="322.75" y="153.33" width="69.13" height="2.89" opacity="0.2"/>
<rect x="322.75" y="173.86" width="69.13" height="2.89" opacity="0.2"/>
<path d="M82,180.61l-8.45-9.9a7.66,7.66,0,0,0-5.83-2.7h-33a18.14,18.14,0,0,1-18.14-18.13v-5.82a18.59,18.59,0,0,1,18.59-18.59H64.29A17.69,17.69,0,0,1,82,143.16Z" fill="#2f2e41" data-secondary="true"/>
<path d="M94.2,114.49l9-9.9a8.38,8.38,0,0,1,6.21-2.69h35c10.66,0,19.3-8.12,19.3-18.14V77.94c0-10.26-8.85-18.58-19.77-18.58H113c-10.4,0-18.82,7.91-18.82,17.68Z" fill="#2f2e41" data-secondary="true"/>
<rect x="45.28" y="140.89" width="6.27" height="15.33" fill="#fff"/>
<rect x="55.24" y="135.92" width="6.27" height="20.3" fill="#fff"/>
<circle cx="116.04" cy="79.65" r="4.6" fill="#fff"/>
<circle cx="128.97" cy="79.65" r="4.6" fill="#fff"/>
<circle cx="142.05" cy="79.65" r="4.6" fill="#fff"/>
<path d="M149,196.05c.25,3.47,1.25,27.63,1.25,27.63l-4.72,1.91-18.89-8.43V205.64c-.24-5.32-2.35-5.26-2.35-5.26l-6.31,0,.78-6.89,6.06-1.35Z" fill="#f9b499"/>
<circle cx="117.94" cy="188.49" r="7.73" fill="#f9b499"/>
<path d="M178.53,268.9c-.56-10.8-13.79-43.31-13.79-43.31-3-7-14.53-6.62-14.53-6.62V221c-6.34,5.4-23.61-6.34-23.61-6.34-5.71,6-18.88,10.91-18.88,10.91-15.65,5.32-33.17,62.26-33.17,62.26-4.1,12.43,3.36,17.39,3.36,17.39l48,36.89L138.61,323l-36.09-35.15,6.16-9.44,1.76,27.93,70.82-1.47s22.67-17.78,30.37-35.42l-15.41-15.86Z" fill="#0071f2" data-primary="true"/>
<path d="M126.29,636.66V616.9a1.11,1.11,0,0,1,1.11-1.11h4.1l8.2,7.45,10.06-4.47,20.89,13.45a2.39,2.39,0,0,1,1.1,2h0a2.41,2.41,0,0,1-2.41,2.42h-31.5l-1.3-3.39a2,2,0,0,0-2.12-1.29h0a2,2,0,0,0-1.8,2v2.66Z" fill="#0071f2" data-primary="true"/>
<path d="M39.45,640.76s-3-2.24,0-6.34l11.18-18.63h14L67,635.17s1.49,4.47-4.1,7.08l-7.73,3.51a9.24,9.24,0,0,1-8.8-.61Z" fill="#0071f2" data-primary="true"/>
<path d="M197.93,255.34l12.88-10.66s.79-7.1,5.7-7.91l9.06-10.31a1.12,1.12,0,0,1,1.61-.08h0a1.1,1.1,0,0,1,.25,1.31L222.52,238a12.43,12.43,0,0,1,3.54,4.25s3.46,2.73,1.73,6l-17.48,19.87Z" fill="#f9b499"/>
<polyline points="164.86 337.95 185.29 311.93 147.11 281.95 124.38 309.15" fill="#ccc"/>
<polyline points="164.86 337.95 185.29 311.93 147.11 281.95 124.38 309.15" fill="#fff" opacity="0.2"/>
<polygon points="505.31 432.83 500.68 432.83 503.56 441.62 508.71 441.62 552.07 441.62 552.07 432.83 505.31 432.83" fill="#2f2e41" data-secondary="true"/>
<path d="M449.39,361.25l26.09-28.32,33.23,34.28s22.68-70.06,43.36-66l9.5-6.71s0,13,10.06,9.32c0,0,5.22-1.83,17.89-16l11.92,4.46s47.71,10.56,45.84,71.8c0,0-4.47,59.63-14.16,77.51H566.41l-2.61-36,38.2-.37s-6.15-70.54-3.91-82.23l5.22,109.83h-98S461,390.32,449.39,361.25Z" fill="#0071f2" data-primary="true"/>
<path d="M535.11,419.39l62.65-93.15,5.18,79-39.14.37.41,5.59S550.76,414.92,535.11,419.39Z" opacity="0.2"/>
<path d="M508.71,432.83s1.49-7.48,55.5-21.64l2.2,30.43H552.07v-8.79Z" fill="#f9b499"/>
<path d="M451.36,359.11,420.7,310.19s-.37-3.72,3.72-3.35c0,0,1.12-4.47,4.48-4.1,0,0,2.23-6,5.59-4.47l-8.13-18.61a2.43,2.43,0,0,1,.91-3h0a2.41,2.41,0,0,1,3.31.7c5.16,7.79,23.87,36.27,25.15,41.41L473,335.65Z" fill="#f9b499"/>
<path d="M376.35,640s0-20.61,14.48-17.56a27.6,27.6,0,0,0,17.39-1.67c4.91-2.28,9.73-5.52,10.56-9.7,0,0,6.76,17.75,21.3,9.18l9.31-10.81s3.36,24.22,0,30.56Z" fill="#0071f2" data-primary="true"/>
<path d="M478.09,612.68s-.19,4.5-5.72,8.28A17,17,0,0,1,459,623.22c-5.71-1.31-15.57-.77-18.88,16.79h73.79L512,612.68s-10.06,15.4-19.75,9.44Z" fill="#0071f2" data-primary="true"/>
<polygon points="433.66 605.24 432.83 604.97 470.06 490.21 470.88 490.48 433.66 605.24" fill="#3f3d56"/>
<path d="M551.94,180.13l-8.27-9.36a8.69,8.69,0,0,0-6.52-2.94h-21a16.77,16.77,0,0,1-16.77-16.77h0a16.77,16.77,0,0,1,16.77-16.77h18.11A17.73,17.73,0,0,1,551.94,152Z" fill="#2f2e41" data-secondary="true"/>
<path d="M121.94,243.86l20.11,37.73-20.6,24.63-11.74-11.53-1-16.28S115,269.52,121.94,243.86Z" opacity="0.2"/>
<rect x="377.91" y="211.7" width="13.98" height="76.15" fill="#fff" opacity="0.2"/>
<rect x="303.53" y="287.87" width="96.92" height="2.56" fill="#2f2e41" data-secondary="true"/>
<path d="M127.19,340.22l22.34,12.84s7.09,3.45,13.66-1.48a5.68,5.68,0,0,0,.69-8.44,26.82,26.82,0,0,0-3.36-2.92s4.49,1.42,4.69-1a2.14,2.14,0,0,0-.75-1.72c-1-.84-3.21-2.36-7.89-3.62a26.62,26.62,0,0,1-8.52-4.09L138.61,323Z" fill="#f9b499"/>
<path d="M162.32,336l23-28.33-39-31.06-24.83,29.61L138.61,323s11.82,8.48,13.7,9.28Z" fill="#3f3d56"/>
<circle cx="516.03" cy="151.2" r="3.4" fill="#fff"/>
<circle cx="525.58" cy="151.2" r="3.4" fill="#fff"/>
<circle cx="535.24" cy="151.2" r="3.4" fill="#fff"/>
<polygon points="365.42 364.11 391.88 441.62 503.56 441.62 478.21 364.11 365.42 364.11" fill="#2f2e41" data-secondary="true"/>
<path d="M466.78,472.63,480.7,605.1H513l4-112.3h64.6s23.35,1.49,40.74-24.84H471A4.22,4.22,0,0,0,466.78,472.63Z" fill="#2f2e41" data-secondary="true"/>
<path d="M496.41,605.13l-8-110.91c0-.24.73-20.11,20.25-20.11h65.53c.12,0,13.51-.56,15.62-6.3l.81.3c-2.31,6.29-15.84,6.85-16.42,6.87H508.71c-18.67,0-19.36,18.43-19.38,19.22l7.94,110.87Z" fill="#3f3d56"/>
<path d="M608.06,611.41a10.69,10.69,0,1,0,10.69,10.69A10.69,10.69,0,0,0,608.06,611.41Zm0,16.46a5.45,5.45,0,1,1,5.45-5.45A5.45,5.45,0,0,1,608.06,627.87Z" fill="#ccc"/>
<path d="M819.41,539.63c5.69-2.93,12.38-3.31,18.69-2.27,3.4.56,6.93,1.58,9.24,4.12s2.74,7,.09,9.22c-1.57,1.31-3.77,1.5-5.82,1.48-4.94-.06-10.42-.93-14.37,2.05-2.25,1.69-3.75,4.51-6.44,5.35s-5.61-.74-7-3.12a10.92,10.92,0,0,1-.79-8A12.29,12.29,0,0,1,819.41,539.63Z" fill="#2f2e41" data-secondary="true"/>
<g opacity="0.2">
<path d="M819.41,539.63c5.69-2.93,12.38-3.31,18.69-2.27,3.4.56,6.93,1.58,9.24,4.12s2.74,7,.09,9.22c-1.57,1.31-3.77,1.5-5.82,1.48-4.94-.06-10.42-.93-14.37,2.05-2.25,1.69-3.75,4.51-6.44,5.35s-5.61-.74-7-3.12a10.92,10.92,0,0,1-.79-8A12.29,12.29,0,0,1,819.41,539.63Z"/>
</g>
<path d="M806.39,514.49c3.47,5,10.23,3.32,13.36.29s4.46-7.42,5.67-11.61c2.75-9.57,5.53-19.61,3.48-29.36a16.28,16.28,0,0,0-3.75-8,8.54,8.54,0,0,0-8.08-2.69c-3.4.9-5.52,4.24-7.05,7.41a70,70,0,0,0-6.92,30c0,4.84.56,9.91,3.29,13.91" fill="#2f2e41" data-secondary="true"/>
<g opacity="0.2">
<path d="M806.39,514.49c3.47,5,10.23,3.32,13.36.29s4.46-7.42,5.67-11.61c2.75-9.57,5.53-19.61,3.48-29.36a16.28,16.28,0,0,0-3.75-8,8.54,8.54,0,0,0-8.08-2.69c-3.4.9-5.52,4.24-7.05,7.41a70,70,0,0,0-6.92,30c0,4.84.56,9.91,3.29,13.91"/>
</g>
<path d="M796.84,521.61c3.77-4.48,4.49-11,2.81-16.62s-5.47-10.39-9.85-14.29a52.94,52.94,0,0,0-17.63-10.4,18.7,18.7,0,0,0-7.93-1.35,8.34,8.34,0,0,0-6.66,4c-1.85,3.54-.07,7.83,1.85,11.33A134.67,134.67,0,0,0,771,512c3.48,4.48,7.45,8.89,12.74,10.91s10.79,1.79,13.59-1.88" fill="#2f2e41" data-secondary="true"/>
<g opacity="0.2">
<path d="M796.84,521.61c3.77-4.48,4.49-11,2.81-16.62s-5.47-10.39-9.85-14.29a52.94,52.94,0,0,0-17.63-10.4,18.7,18.7,0,0,0-7.93-1.35,8.34,8.34,0,0,0-6.66,4c-1.85,3.54-.07,7.83,1.85,11.33A134.67,134.67,0,0,0,771,512c3.48,4.48,7.45,8.89,12.74,10.91s10.79,1.79,13.59-1.88"/>
</g>
<path d="M806.15,589.39a10.71,10.71,0,0,0,.32-2.26c.16-1.64.36-3.7.6-6.15a87.11,87.11,0,0,1,1.38-9,70.87,70.87,0,0,1,3.28-10.66,39.61,39.61,0,0,1,5.45-9.64,20.25,20.25,0,0,1,6.88-5.72,19.37,19.37,0,0,1,5.79-1.81,10.84,10.84,0,0,0,2.25-.32,9.9,9.9,0,0,0-2.29,0,17.54,17.54,0,0,0-6,1.58,20.33,20.33,0,0,0-7.26,5.77,38.34,38.34,0,0,0-5.64,9.84,65.17,65.17,0,0,0-3.26,10.83,76,76,0,0,0-1.2,9.15c-.2,2.61-.27,4.73-.31,6.19A10.92,10.92,0,0,0,806.15,589.39Z" fill="#2f2e41" data-secondary="true"/>
<path d="M806.58,584.65a4.74,4.74,0,0,0,.06-1c0-.78,0-1.77,0-3,0-2.6,0-6.36.13-11,.23-9.29,1-19.28,2.58-33.37,1.46-13.25,3.42-28.66,5.49-38.69.45-2.28.89-4.33,1.31-6.13s.75-3.35,1.08-4.61.52-2.14.7-2.91a4.3,4.3,0,0,0,.18-1,4.73,4.73,0,0,0-.36,1l-.87,2.87c-.39,1.25-.78,2.79-1.23,4.58s-1,3.84-1.45,6.11a340,340,0,0,0-5.78,35.91c-1.55,14.11-2.24,27-2.31,36.28-.05,4.65,0,8.42.17,11,.07,1.22.13,2.21.18,3A3.7,3.7,0,0,0,806.58,584.65Z" fill="#2f2e41" data-secondary="true"/>
<path d="M806.64,559.86a21.44,21.44,0,0,0,0-3.13c-.12-2-.4-4.91-1-8.47a111.23,111.23,0,0,0-2.76-12.35,100.81,100.81,0,0,0-5.16-14.6,77.74,77.74,0,0,0-15.16-23.61,37.14,37.14,0,0,0-3.57-3.31c-.54-.47-1-.93-1.52-1.29l-1.38-1a18.25,18.25,0,0,0-2.64-1.68c-.14.2,3.74,2.48,8.63,7.7a81.92,81.92,0,0,1,14.79,23.52,116.17,116.17,0,0,1,5.19,14.47c1.35,4.53,2.25,8.71,2.93,12.22s1,6.4,1.24,8.39A19.46,19.46,0,0,0,806.64,559.86Z" fill="#2f2e41" data-secondary="true"/>
<path d="M806.15,589.39a10.71,10.71,0,0,0,.32-2.26c.16-1.64.36-3.7.6-6.15a87.11,87.11,0,0,1,1.38-9,70.87,70.87,0,0,1,3.28-10.66,39.61,39.61,0,0,1,5.45-9.64,20.25,20.25,0,0,1,6.88-5.72,19.37,19.37,0,0,1,5.79-1.81,10.84,10.84,0,0,0,2.25-.32,9.9,9.9,0,0,0-2.29,0,17.54,17.54,0,0,0-6,1.58,20.33,20.33,0,0,0-7.26,5.77,38.34,38.34,0,0,0-5.64,9.84,65.17,65.17,0,0,0-3.26,10.83,76,76,0,0,0-1.2,9.15c-.2,2.61-.27,4.73-.31,6.19A10.92,10.92,0,0,0,806.15,589.39Z" fill="#2f2e41" data-secondary="true"/>
<path d="M806.58,584.65a4.74,4.74,0,0,0,.06-1c0-.78,0-1.77,0-3,0-2.6,0-6.36.13-11,.23-9.29,1-19.28,2.58-33.37,1.46-13.25,3.42-28.66,5.49-38.69.45-2.28.89-4.33,1.31-6.13s.75-3.35,1.08-4.61.52-2.14.7-2.91a4.3,4.3,0,0,0,.18-1,4.73,4.73,0,0,0-.36,1l-.87,2.87c-.39,1.25-.78,2.79-1.23,4.58s-1,3.84-1.45,6.11a340,340,0,0,0-5.78,35.91c-1.55,14.11-2.24,27-2.31,36.28-.05,4.65,0,8.42.17,11,.07,1.22.13,2.21.18,3A3.7,3.7,0,0,0,806.58,584.65Z" fill="#2f2e41" data-secondary="true"/>
<path d="M806.64,559.86a21.44,21.44,0,0,0,0-3.13c-.12-2-.4-4.91-1-8.47a111.23,111.23,0,0,0-2.76-12.35,100.81,100.81,0,0,0-5.16-14.6,77.74,77.74,0,0,0-15.16-23.61,37.14,37.14,0,0,0-3.57-3.31c-.54-.47-1-.93-1.52-1.29l-1.38-1a18.25,18.25,0,0,0-2.64-1.68c-.14.2,3.74,2.48,8.63,7.7a81.92,81.92,0,0,1,14.79,23.52,116.17,116.17,0,0,1,5.19,14.47c1.35,4.53,2.25,8.71,2.93,12.22s1,6.4,1.24,8.39A19.46,19.46,0,0,0,806.64,559.86Z" fill="#2f2e41" data-secondary="true"/>
<polygon points="782.67 603.6 785.16 637.63 828.88 637.63 831.37 603.6 782.67 603.6" fill="#2f2e41" data-secondary="true"/>
<rect x="778.45" y="590.18" width="58.14" height="13.42" fill="#2f2e41" data-secondary="true"/>
<g opacity="0.2">
<rect x="778.45" y="590.18" width="58.14" height="13.42"/>
</g>
<polygon points="778.45 636.33 778.45 640.05 781.18 640.05 835.63 640.05 835.63 636.33 778.45 636.33" fill="#2f2e41" data-secondary="true"/>
<g opacity="0.2">
<polygon points="778.45 636.33 778.45 640.05 781.18 640.05 835.63 640.05 835.63 636.33 778.45 636.33"/>
</g>
<polygon points="783.86 646.59 781.18 640.05 833.54 640.05 830.42 646.59 783.86 646.59" fill="#2f2e41" data-secondary="true"/>
<path d="M830.56,614.72a1.37,1.37,0,0,1-.21.31l-.65.87-2.55,3.26-.11.14-.11-.15-6.26-8.65H821l-6.16,8.72-.19.27-.22-.25-7.31-8.7h.42c-.12.16-.26.33-.4.5l-6.53,8.19-.22.28-.2-.29-6.16-8.72.35,0-7.59,8.65-.13.15-.11-.17-2.37-4-.61-1.06a1.49,1.49,0,0,1-.19-.38,1.74,1.74,0,0,1,.26.34c.17.27.4.6.67,1l2.5,3.92-.24,0,7.47-8.75.19-.22.17.24,6.22,8.68h-.42l6.52-8.21.4-.5.21-.26.21.25,7.29,8.71-.41,0,6.22-8.68.18-.25.18.25,6.13,8.75h-.23l2.65-3.17.71-.83C830.46,614.8,830.55,614.71,830.56,614.72Z" fill="#fff"/>
<path d="M376.35,640s0-20.61,14.48-17.56a27.6,27.6,0,0,0,17.39-1.67c4.91-2.28,9.73-5.52,10.56-9.7,0,0,6.76,17.75,21.3,9.18l9.31-10.81s3.36,24.22,0,30.56Z" opacity="0.2"/>
<path d="M590.75,252.75c-1.69-.62-3.69.49-5,2.54q0-.19-.06-.54c.11-.67.23-1.35.31-2,1.94-16.21-4.84-30.35-15.14-31.59s-20.24,10.9-22.18,27.12c-1.92,16,4.69,30,14.81,31.53l-1.93,14.77s-2.11,9.82,7.45,10.63c0,0,7.08.09,20.5-17.32a102.53,102.53,0,0,0-3.73-24.36,4.58,4.58,0,0,0,.65.14,2.44,2.44,0,0,0,.28.14c2.09.76,4.67-1.09,5.79-4.14S592.83,253.51,590.75,252.75Z" fill="#f9b499"/>
<path d="M586,220.16s-29.8-23.18-37.58-5.48c0,0-6.82,7.35,6.61,14.68,0,0,.58,6.94,8.95,4.06,0,0,9.45-5.49,12.55-2.17,0,0,7.08,6.3,9.31,24.29,0,0,3.93-3.95,5.71-1.13,0,0,10.19-20.66,4.73-25C596.23,229.36,596.3,216.83,586,220.16Z" fill="#2f2e41" data-secondary="true"/>
<path d="M149.35,203.79l-.39-7.74s-6.66,11.26-20,.17C129,196.22,133.09,211,149.35,203.79Z" fill="#f7a48b"/>
<ellipse cx="138.31" cy="179.76" rx="17.67" ry="22.77" fill="#f9b499"/>
<path d="M120.64,186c.29.35,14.38-6,21.41-25.9,0,0,4.06-2.42,10.77,7.64,0,0-2-13.63-19.25-16.13,0,0-23.24-5.11-32.56,10.92,0,0-12.29,32.42,17.89,41,0,0,3.16,1.22,4.7-1.3a4,4,0,0,0-2.35-5.74c-3.79-1.16-9.62-3.8-9.24-9C112,187.47,114,178.16,120.64,186Z" fill="#2f2e41" data-secondary="true"/>
<path d="M563.5,279.77l-.46,3.52s10.65-1.58,15.4-8.9C578.44,274.39,568.86,280.92,563.5,279.77Z" fill="#f7a48b"/>
</svg>